<?xml version="1.0" standalone="no"?>
<!DOCTYPE svg PUBLIC "-//W3C//DTD SVG 20010904//EN"
 "http://www.w3.org/TR/2001/REC-SVG-20010904/DTD/svg10.dtd">
    <svg version="1.0" xmlns="http://www.w3.org/2000/svg"
    width="200.000000pt" height="200.000000pt" viewBox="0 0 200.000000 200.000000"
    preserveAspectRatio="xMidYMid meet">

    <g transform="translate(0.000000,200.000000) scale(0.100000,-0.100000)"
    fill="#006eb4" stroke="none">
    <path d="M832 1533 c-19 -7 -42 -58 -42 -92 0 -62 46 -110 91 -96 43 14 62
    100 34 154 -19 37 -47 49 -83 34z"/>
    <path d="M1005 1515 c-43 -43 -26 -154 26 -170 48 -16 101 65 85 129 -8 34
    -40 66 -66 66 -12 0 -32 -11 -45 -25z"/>
    <path d="M649 1354 c-35 -43 -4 -133 55 -162 23 -12 31 -11 52 2 35 24 35 102
    -2 145 -29 35 -82 43 -105 15z"/>
    <path d="M1162 1363 c-21 -8 -42 -59 -42 -101 0 -42 28 -82 59 -82 31 0 70 39
    77 75 15 81 -31 134 -94 108z"/>
    <path d="M895 1311 c-28 -12 -52 -40 -71 -86 -9 -22 -43 -68 -75 -103 -33 -34
    -59 -67 -59 -73 0 -5 18 0 39 10 71 37 182 62 291 67 l105 4 -104 -25 c-163
    -39 -381 -156 -381 -205 0 -27 35 -60 64 -60 14 0 49 20 83 48 124 103 147
    109 265 72 89 -28 122 -26 148 7 21 27 23 64 6 104 -9 21 17 28 99 30 84 2 26
    16 -72 18 -68 1 -74 3 -104 34 -18 17 -39 52 -48 77 -27 74 -112 111 -186 81z"/>
    <path d="M107 763 c-5 -9 -57 -171 -57 -179 0 -2 9 -4 19 -4 12 0 21 9 25 25
    5 21 12 25 41 25 29 0 36 -4 41 -25 4 -16 13 -25 25 -25 23 0 24 -4 -10 100
    -24 76 -29 85 -53 88 -14 2 -28 0 -31 -5z m47 -75 c6 -25 4 -28 -19 -28 -28 0
    -29 4 -14 50 13 35 21 29 33 -22z"/>
    <path d="M410 755 c0 -8 7 -15 15 -15 8 0 15 7 15 15 0 8 -7 15 -15 15 -8 0
    -15 -7 -15 -15z"/>
    <path d="M880 687 c0 -89 8 -107 47 -107 26 0 31 18 8 26 -12 5 -15 24 -15 85
    0 72 -2 79 -20 79 -18 0 -20 -7 -20 -83z"/>
    <path d="M1038 759 c-19 -10 -23 -35 -12 -64 4 -9 27 -26 51 -36 55 -23 52
    -42 -8 -49 -59 -7 -56 -24 4 -28 59 -4 79 10 75 52 -2 25 -11 35 -45 51 -61
    28 -59 55 3 55 32 0 44 4 42 13 -6 15 -87 20 -110 6z"/>
    <path d="M1190 675 c0 -78 3 -95 15 -95 11 0 15 12 15 45 0 34 5 47 20 55 30
    16 40 4 40 -51 0 -37 4 -49 15 -49 12 0 15 14 15 66 l0 67 -45 -5 -45 -6 0 34
    c0 24 -5 34 -15 34 -12 0 -15 -17 -15 -95z"/>
    <path d="M1512 678 l3 -93 28 -3 c19 -2 27 1 27 12 0 9 -7 16 -15 16 -12 0
    -15 16 -15 80 0 65 -3 80 -15 80 -13 0 -15 -15 -13 -92z"/>
    <path d="M1610 735 c0 -7 -8 -18 -17 -24 -17 -9 -17 -11 -1 -23 11 -8 18 -30
    20 -58 3 -43 5 -45 35 -48 26 -3 32 0 27 12 -3 9 -12 16 -20 16 -10 0 -14 12
    -14 40 0 33 3 40 20 40 11 0 20 5 20 10 0 6 -9 10 -20 10 -13 0 -20 7 -20 20
    0 11 -7 20 -15 20 -8 0 -15 -7 -15 -15z"/>
    <path d="M542 709 c-12 -5 -29 -6 -37 -3 -12 5 -15 -5 -15 -60 0 -52 3 -66 15
    -66 11 0 15 12 15 49 0 35 4 51 16 55 26 10 34 -3 34 -55 0 -37 4 -49 15 -49
    11 0 15 12 15 45 0 34 5 47 19 55 30 15 31 14 31 -45 0 -49 2 -55 20 -55 19 0
    21 5 18 63 l-3 62 -51 1 c-28 0 -55 3 -60 6 -5 3 -19 2 -32 -3z"/>
    <path d="M763 712 c-44 -4 -42 -20 4 -24 45 -4 58 -28 15 -28 -48 0 -62 -9
    -62 -41 0 -23 6 -30 27 -35 15 -4 34 -2 47 6 14 9 21 10 24 1 2 -6 8 -11 13
    -11 6 0 9 27 7 61 -3 68 -13 78 -75 71z m47 -86 c0 -18 -37 -27 -50 -12 -13
    16 -3 26 27 26 13 0 23 -6 23 -14z"/>
    <path d="M1745 712 c-11 -2 -26 -9 -32 -14 -18 -15 -16 -83 3 -102 21 -22 104
    -22 104 -1 0 11 -9 15 -28 13 -15 -1 -33 1 -40 6 -24 14 -12 26 27 26 31 0 41
    4 46 20 12 36 -29 62 -80 52z m43 -39 c-2 -10 -13 -19 -26 -21 -17 -3 -22 2
    -22 17 0 16 6 21 26 21 19 0 25 -5 22 -17z"/>
    <path d="M1925 710 c-11 -4 -30 -6 -42 -3 -22 5 -23 2 -23 -61 0 -51 3 -66 14
    -66 11 0 16 14 18 48 3 43 5 47 31 50 19 2 27 9 27 23 0 10 -1 19 -2 18 -2 0
    -12 -4 -23 -9z"/>
    <path d="M240 643 c0 -56 2 -63 20 -63 17 0 20 7 20 49 0 42 3 51 21 56 28 9
    39 -8 39 -62 0 -32 4 -43 15 -43 13 0 15 11 13 63 l-3 62 -62 1 -63 1 0 -64z"/>
    <path d="M410 645 c0 -51 3 -65 15 -65 12 0 15 14 15 65 0 51 -3 65 -15 65
    -12 0 -15 -14 -15 -65z"/>
    <path d="M1362 698 c-6 -6 -12 -31 -12 -55 0 -32 5 -45 20 -53 27 -14 92 -9
    98 8 3 9 -4 13 -19 12 -44 -4 -59 0 -59 14 0 10 13 16 38 18 34 3 37 6 37 33
    0 28 -2 30 -45 33 -26 2 -50 -2 -58 -10z m78 -22 c0 -16 -34 -31 -49 -21 -6 3
    -8 12 -4 20 7 19 53 20 53 1z"/>
    </g>
    </svg>
